<svg width="154" height="24" viewBox="0 0 154 24" fill="none" xmlns="http://www.w3.org/2000/svg">
<path fill-rule="evenodd" clip-rule="evenodd" d="M12 2.25C12.1989 2.25 12.3897 2.32902 12.5303 2.46967C12.671 2.61032 12.75 2.80109 12.75 3V14.69L15.97 11.47C16.0387 11.3963 16.1215 11.3372 16.2135 11.2962C16.3055 11.2552 16.4048 11.2332 16.5055 11.2314C16.6062 11.2296 16.7062 11.2482 16.7996 11.2859C16.893 11.3236 16.9778 11.3797 17.049 11.451C17.1203 11.5222 17.1764 11.607 17.2141 11.7004C17.2518 11.7938 17.2704 11.8938 17.2686 11.9945C17.2668 12.0952 17.2448 12.1945 17.2038 12.2865C17.1628 12.3785 17.1037 12.4613 17.03 12.53L12.53 17.03C12.3894 17.1705 12.1988 17.2493 12 17.2493C11.8012 17.2493 11.6106 17.1705 11.47 17.03L6.97 12.53C6.89631 12.4613 6.83721 12.3785 6.79622 12.2865C6.75523 12.1945 6.73319 12.0952 6.73141 11.9945C6.72963 11.8938 6.74816 11.7938 6.78588 11.7004C6.8236 11.607 6.87974 11.5222 6.95096 11.451C7.02218 11.3797 7.10701 11.3236 7.2004 11.2859C7.29379 11.2482 7.39382 11.2296 7.49452 11.2314C7.59523 11.2332 7.69454 11.2552 7.78654 11.2962C7.87854 11.3372 7.96134 11.3963 8.03 11.47L11.25 14.69V3C11.25 2.80109 11.329 2.61032 11.4697 2.46967C11.6103 2.32902 11.8011 2.25 12 2.25ZM3 15.75C3.19891 15.75 3.38968 15.829 3.53033 15.9697C3.67098 16.1103 3.75 16.3011 3.75 16.5V18.75C3.75 19.1478 3.90804 19.5294 4.18934 19.8107C4.47064 20.092 4.85218 20.25 5.25 20.25H18.75C19.1478 20.25 19.5294 20.092 19.8107 19.8107C20.092 19.5294 20.25 19.1478 20.25 18.75V16.5C20.25 16.3011 20.329 16.1103 20.4697 15.9697C20.6103 15.829 20.8011 15.75 21 15.75C21.1989 15.75 21.3897 15.829 21.5303 15.9697C21.671 16.1103 21.75 16.3011 21.75 16.5V18.75C21.75 19.5456 21.4339 20.3087 20.8713 20.8713C20.3087 21.4339 19.5456 21.75 18.75 21.75H5.25C4.45435 21.75 3.69129 21.4339 3.12868 20.8713C2.56607 20.3087 2.25 19.5456 2.25 18.75V16.5C2.25 16.3011 2.32902 16.1103 2.46967 15.9697C2.61032 15.829 2.80109 15.75 3 15.75Z" fill="#808080"/>
<path d="M39.7784 19H35.1378V5.90909H39.8168C41.1335 5.90909 42.267 6.17116 43.2173 6.69531C44.1676 7.2152 44.8984 7.96307 45.4098 8.93892C45.9254 9.91477 46.1832 11.0824 46.1832 12.4418C46.1832 13.8054 45.9254 14.9773 45.4098 15.9574C44.8984 16.9375 44.1634 17.6896 43.2045 18.2138C42.25 18.7379 41.108 19 39.7784 19ZM37.9055 16.6286H39.6634C40.4815 16.6286 41.1697 16.4837 41.728 16.1939C42.2905 15.8999 42.7124 15.446 42.9936 14.8324C43.2791 14.2145 43.4219 13.4176 43.4219 12.4418C43.4219 11.4744 43.2791 10.6839 42.9936 10.0703C42.7124 9.45668 42.2926 9.00497 41.7344 8.7152C41.1761 8.42543 40.4879 8.28054 39.6697 8.28054H37.9055V16.6286ZM52.6184 19.1918C51.6255 19.1918 50.7669 18.9808 50.0424 18.5589C49.3223 18.1328 48.7662 17.5405 48.3741 16.782C47.9821 16.0192 47.786 15.1349 47.786 14.1293C47.786 13.1151 47.9821 12.2287 48.3741 11.4702C48.7662 10.7074 49.3223 10.1151 50.0424 9.69318C50.7669 9.26705 51.6255 9.05398 52.6184 9.05398C53.6113 9.05398 54.4679 9.26705 55.188 9.69318C55.9125 10.1151 56.4707 10.7074 56.8627 11.4702C57.2548 12.2287 57.4508 13.1151 57.4508 14.1293C57.4508 15.1349 57.2548 16.0192 56.8627 16.782C56.4707 17.5405 55.9125 18.1328 55.188 18.5589C54.4679 18.9808 53.6113 19.1918 52.6184 19.1918ZM52.6312 17.0824C53.0829 17.0824 53.46 16.9545 53.7626 16.6989C54.0652 16.4389 54.2931 16.0852 54.4466 15.6378C54.6042 15.1903 54.6831 14.6811 54.6831 14.1101C54.6831 13.5391 54.6042 13.0298 54.4466 12.5824C54.2931 12.1349 54.0652 11.7812 53.7626 11.5213C53.46 11.2614 53.0829 11.1314 52.6312 11.1314C52.1752 11.1314 51.7917 11.2614 51.4806 11.5213C51.1738 11.7812 50.9416 12.1349 50.7839 12.5824C50.6305 13.0298 50.5538 13.5391 50.5538 14.1101C50.5538 14.6811 50.6305 15.1903 50.7839 15.6378C50.9416 16.0852 51.1738 16.4389 51.4806 16.6989C51.7917 16.9545 52.1752 17.0824 52.6312 17.0824ZM60.9121 19L58.2402 9.18182H60.9952L62.5165 15.7784H62.606L64.1912 9.18182H66.8951L68.5059 15.7401H68.589L70.0847 9.18182H72.8333L70.1678 19H67.285L65.5975 12.8253H65.476L63.7885 19H60.9121ZM77.0089 13.3239V19H74.2859V9.18182H76.881V10.9141H76.9961C77.2134 10.343 77.5778 9.89133 78.0891 9.55895C78.6005 9.2223 79.2205 9.05398 79.9492 9.05398C80.631 9.05398 81.2255 9.20312 81.7326 9.50142C82.2397 9.79972 82.6339 10.2259 82.9151 10.7798C83.1964 11.3295 83.337 11.9858 83.337 12.7486V19H80.614V13.2344C80.6183 12.6335 80.4648 12.1648 80.1538 11.8281C79.8427 11.4872 79.4144 11.3168 78.869 11.3168C78.5025 11.3168 78.1786 11.3956 77.8974 11.5533C77.6204 11.7109 77.4031 11.9411 77.2454 12.2436C77.092 12.5419 77.0131 12.902 77.0089 13.3239ZM88.2061 5.90909V19H85.4831V5.90909H88.2061ZM94.8235 19.1918C93.8306 19.1918 92.9719 18.9808 92.2475 18.5589C91.5273 18.1328 90.9712 17.5405 90.5792 16.782C90.1871 16.0192 89.9911 15.1349 89.9911 14.1293C89.9911 13.1151 90.1871 12.2287 90.5792 11.4702C90.9712 10.7074 91.5273 10.1151 92.2475 9.69318C92.9719 9.26705 93.8306 9.05398 94.8235 9.05398C95.8164 9.05398 96.6729 9.26705 97.3931 9.69318C98.1175 10.1151 98.6758 10.7074 99.0678 11.4702C99.4599 12.2287 99.6559 13.1151 99.6559 14.1293C99.6559 15.1349 99.4599 16.0192 99.0678 16.782C98.6758 17.5405 98.1175 18.1328 97.3931 18.5589C96.6729 18.9808 95.8164 19.1918 94.8235 19.1918ZM94.8363 17.0824C95.288 17.0824 95.6651 16.9545 95.9677 16.6989C96.2702 16.4389 96.4982 16.0852 96.6516 15.6378C96.8093 15.1903 96.8881 14.6811 96.8881 14.1101C96.8881 13.5391 96.8093 13.0298 96.6516 12.5824C96.4982 12.1349 96.2702 11.7812 95.9677 11.5213C95.6651 11.2614 95.288 11.1314 94.8363 11.1314C94.3803 11.1314 93.9968 11.2614 93.6857 11.5213C93.3789 11.7812 93.1467 12.1349 92.989 12.5824C92.8356 13.0298 92.7589 13.5391 92.7589 14.1101C92.7589 14.6811 92.8356 15.1903 92.989 15.6378C93.1467 16.0852 93.3789 16.4389 93.6857 16.6989C93.9968 16.9545 94.3803 17.0824 94.8363 17.0824ZM104.226 19.1854C103.6 19.1854 103.042 19.0767 102.551 18.8594C102.061 18.6378 101.674 18.3118 101.388 17.8814C101.107 17.4467 100.966 16.9055 100.966 16.2578C100.966 15.7124 101.066 15.2543 101.267 14.8835C101.467 14.5128 101.74 14.2145 102.085 13.9886C102.43 13.7628 102.822 13.5923 103.261 13.4773C103.704 13.3622 104.169 13.2812 104.654 13.2344C105.225 13.1747 105.686 13.1193 106.035 13.0682C106.385 13.0128 106.638 12.9318 106.796 12.8253C106.953 12.7187 107.032 12.5611 107.032 12.3523V12.3139C107.032 11.9091 106.904 11.5959 106.649 11.3743C106.397 11.1527 106.039 11.0419 105.575 11.0419C105.085 11.0419 104.695 11.1506 104.405 11.3679C104.115 11.581 103.924 11.8494 103.83 12.1733L101.311 11.9688C101.439 11.3722 101.691 10.8565 102.066 10.4219C102.441 9.98295 102.924 9.64631 103.517 9.41193C104.113 9.1733 104.804 9.05398 105.588 9.05398C106.133 9.05398 106.655 9.1179 107.154 9.24574C107.657 9.37358 108.102 9.57173 108.49 9.8402C108.882 10.1087 109.191 10.4538 109.417 10.8757C109.642 11.2933 109.755 11.794 109.755 12.3778V19H107.173V17.6385H107.096C106.939 17.9453 106.728 18.2159 106.463 18.4503C106.199 18.6804 105.882 18.8615 105.511 18.9936C105.14 19.1214 104.712 19.1854 104.226 19.1854ZM105.006 17.3061C105.407 17.3061 105.76 17.2273 106.067 17.0696C106.374 16.9077 106.615 16.6903 106.789 16.4176C106.964 16.1449 107.051 15.8359 107.051 15.4908V14.4489C106.966 14.5043 106.849 14.5554 106.7 14.6023C106.555 14.6449 106.391 14.6854 106.208 14.7237C106.025 14.7578 105.841 14.7898 105.658 14.8196C105.475 14.8452 105.309 14.8686 105.159 14.8899C104.84 14.9368 104.561 15.0114 104.322 15.1136C104.083 15.2159 103.898 15.3544 103.766 15.5291C103.634 15.6996 103.568 15.9126 103.568 16.1683C103.568 16.5391 103.702 16.8224 103.971 17.0185C104.243 17.2102 104.588 17.3061 105.006 17.3061ZM115.486 19.1598C114.74 19.1598 114.065 18.968 113.46 18.5845C112.859 18.1967 112.381 17.6278 112.028 16.8778C111.678 16.1236 111.504 15.1989 111.504 14.1037C111.504 12.9787 111.685 12.0433 112.047 11.2976C112.409 10.5476 112.891 9.98722 113.491 9.61648C114.097 9.24148 114.759 9.05398 115.479 9.05398C116.029 9.05398 116.487 9.14773 116.854 9.33523C117.224 9.51847 117.523 9.74858 117.749 10.0256C117.979 10.2983 118.153 10.5668 118.273 10.831H118.356V5.90909H121.072V19H118.388V17.4276H118.273C118.145 17.7003 117.964 17.9709 117.729 18.2393C117.499 18.5036 117.199 18.723 116.828 18.8977C116.462 19.0724 116.014 19.1598 115.486 19.1598ZM116.349 16.9929C116.788 16.9929 117.158 16.8736 117.461 16.6349C117.768 16.392 118.002 16.0533 118.164 15.6186C118.33 15.1839 118.413 14.6747 118.413 14.0909C118.413 13.5071 118.332 13 118.17 12.5696C118.009 12.1392 117.774 11.8068 117.467 11.5724C117.161 11.3381 116.788 11.2209 116.349 11.2209C115.901 11.2209 115.524 11.3423 115.217 11.5852C114.911 11.8281 114.678 12.1648 114.521 12.5952C114.363 13.0256 114.284 13.5241 114.284 14.0909C114.284 14.6619 114.363 15.1669 114.521 15.6058C114.683 16.0405 114.915 16.3814 115.217 16.6286C115.524 16.8714 115.901 16.9929 116.349 16.9929ZM139.079 10.4922H136.279C136.228 10.13 136.124 9.80824 135.966 9.52699C135.808 9.24148 135.606 8.99858 135.359 8.7983C135.112 8.59801 134.826 8.4446 134.502 8.33807C134.183 8.23153 133.835 8.17827 133.46 8.17827C132.783 8.17827 132.192 8.34659 131.69 8.68324C131.187 9.01562 130.797 9.50142 130.52 10.1406C130.243 10.7756 130.104 11.5469 130.104 12.4545C130.104 13.3878 130.243 14.1719 130.52 14.8068C130.801 15.4418 131.193 15.9212 131.696 16.245C132.199 16.5689 132.781 16.7308 133.441 16.7308C133.812 16.7308 134.155 16.6818 134.47 16.5838C134.79 16.4858 135.073 16.343 135.32 16.1555C135.567 15.9638 135.772 15.7315 135.934 15.4588C136.1 15.1861 136.215 14.875 136.279 14.5256L139.079 14.5384C139.006 15.1392 138.825 15.7188 138.536 16.277C138.25 16.831 137.864 17.3274 137.379 17.7663C136.897 18.201 136.322 18.5462 135.653 18.8018C134.988 19.0533 134.236 19.179 133.396 19.179C132.229 19.179 131.185 18.9148 130.264 18.3864C129.348 17.858 128.624 17.093 128.091 16.0916C127.562 15.0902 127.298 13.8778 127.298 12.4545C127.298 11.027 127.567 9.8125 128.104 8.81108C128.641 7.80966 129.369 7.04687 130.29 6.52273C131.21 5.99432 132.246 5.73011 133.396 5.73011C134.155 5.73011 134.858 5.83665 135.506 6.04972C136.158 6.26278 136.735 6.57386 137.238 6.98295C137.741 7.38778 138.15 7.88423 138.465 8.4723C138.785 9.06037 138.989 9.73366 139.079 10.4922ZM143.429 5.90909L146.593 15.8551H146.714L149.885 5.90909H152.953L148.44 19H144.873L140.354 5.90909H143.429Z" fill="#808080"/>
</svg>
